<svg width="31" height="24" viewBox="0 0 31 24" fill="none" xmlns="http://www.w3.org/2000/svg">
<path d="M26.3358 2.01599C24.3801 1.072 22.3031 0.383998 20.1351 0C19.8622 0.496003 19.559 1.16799 19.3467 1.696C17.0408 1.34399 14.7515 1.34399 12.4774 1.696C12.2652 1.16799 11.9468 0.496003 11.689 0C9.50594 0.383998 7.42893 1.072 5.48685 2.01599C1.56025 8.12797 0.499002 14.0959 1.02962 19.9839C3.63725 21.9839 6.15394 23.2 8.62664 24C9.23307 23.136 9.77886 22.2079 10.2488 21.232C9.35436 20.88 8.50536 20.4479 7.68669 19.9359C7.89894 19.776 8.1112 19.6 8.30828 19.424C13.2506 21.808 18.6039 21.808 23.4856 19.424C23.6978 19.6 23.8949 19.776 24.1072 19.9359C23.2885 20.4479 22.4395 20.88 21.545 21.232C22.015 22.2079 22.5608 23.136 23.1672 24C25.6384 23.2 28.1702 21.9839 30.7642 19.9839C31.416 13.168 29.7317 7.24803 26.3358 2.01599ZM10.9311 16.3519C9.4453 16.3519 8.23245 14.928 8.23245 13.184C8.23245 11.44 9.41498 10.016 10.9311 10.016C12.4319 10.016 13.6599 11.44 13.6296 13.184C13.6296 14.928 12.4319 16.3519 10.9311 16.3519ZM20.8932 16.3519C19.4073 16.3519 18.193 14.928 18.193 13.184C18.193 11.44 19.377 10.016 20.8932 10.016C22.394 10.016 23.622 11.44 23.5917 13.184C23.5917 14.928 22.4092 16.3519 20.8932 16.3519Z" fill="white"/>
</svg>
